{
	"asset":{
		"generator":"Khronos glTF Blender I/O v4.0.44",
		"version":"2.0"
	},
	"extensionsUsed":[
		"KHR_materials_unlit"
	],
	"scene":0,
	"scenes":[
		{
			"name":"Scene",
			"nodes":[
				0,
				1,
				3
			]
		}
	],
	"nodes":[
		{
			"name":"Mask.obj"
		},
		{
			"name":"anonymous_mask.glb",
			"translation":[
				0,
				1.1592093706130981,
				0
			]
		},
		{
			"mesh":0,
			"name":"body.001",
			"rotation":[
				0.70710688829422,
				0,
				0,
				0.7071066498756409
			],
			"scale":[
				1.908568024635315,
				1.9085681438446045,
				1.9085681438446045
			],
			"translation":[
				0.002933502197265625,
				-1.9876446723937988,
				-1.132516860961914
			]
		},
		{
			"children":[
				2
			],
			"name":"anonymous_mask.glb.001"
		}
	],
	"materials":[
		{
			"extensions":{
				"KHR_materials_unlit":{}
			},
			"name":"Material_0",
			"pbrMetallicRoughness":{
				"metallicFactor":0,
				"roughnessFactor":0.9
			}
		}
	],
	"meshes":[
		{
			"name":"Mesh_0",
			"primitives":[
				{
					"attributes":{
						"POSITION":0,
						"NORMAL":1,
						"TEXCOORD_0":2
					},
					"indices":3,
					"material":0
				}
			]
		}
	],
	"accessors":[
		{
			"bufferView":0,
			"componentType":5126,
			"count":87536,
			"max":[
				0.5429350137710571,
				0.7394949793815613,
				-0.28730499744415283
			],
			"min":[
				-0.5429350137710571,
				0.1324709951877594,
				-1.6816420555114746
			],
			"type":"VEC3"
		},
		{
			"bufferView":1,
			"componentType":5126,
			"count":87536,
			"type":"VEC3"
		},
		{
			"bufferView":2,
			"componentType":5126,
			"count":87536,
			"type":"VEC2"
		},
		{
			"bufferView":3,
			"componentType":5125,
			"count":126576,
			"type":"SCALAR"
		}
	],
	"bufferViews":[
		{
			"buffer":0,
			"byteLength":1050432,
			"byteOffset":0,
			"target":34962
		},
		{
			"buffer":0,
			"byteLength":1050432,
			"byteOffset":1050432,
			"target":34962
		},
		{
			"buffer":0,
			"byteLength":700288,
			"byteOffset":2100864,
			"target":34962
		},
		{
			"buffer":0,
			"byteLength":506304,
			"byteOffset":2801152,
			"target":34963
		}
	],
	"buffers":[
		{
			"byteLength":3307456,
			"uri":"mask.bin"
		}
	]
}
